<svg xmlns="http://www.w3.org/2000/svg" width="700" height="420">
<text x="10" y="20" font-size="14">link_auc heatmap</text>
<text x="80" y="45" font-size="11">b=0.00</text>
<text x="150" y="45" font-size="11">b=0.05</text>
<text x="220" y="45" font-size="11">b=0.10</text>
<text x="290" y="45" font-size="11">b=0.15</text>
<text x="360" y="45" font-size="11">b=0.20</text>
<text x="430" y="45" font-size="11">b=0.25</text>
<text x="500" y="45" font-size="11">b=0.30</text>
<text x="570" y="45" font-size="11">b=0.35</text>
<text x="640" y="45" font-size="11">b=0.40</text>
<text x="5" y="88" font-size="11">l=0.00</text>
<rect x="70" y="60" width="62" height="40" fill="rgb(56,179,56)" stroke="black"/>
<text x="76" y="84" font-size="10">0.640</text>
<rect x="140" y="60" width="62" height="40" fill="rgb(105,145,105)" stroke="black"/>
<text x="146" y="84" font-size="10">0.623</text>
<rect x="210" y="60" width="62" height="40" fill="rgb(90,156,90)" stroke="black"/>
<text x="216" y="84" font-size="10">0.628</text>
<rect x="280" y="60" width="62" height="40" fill="rgb(57,179,57)" stroke="black"/>
<text x="286" y="84" font-size="10">0.640</text>
<rect x="350" y="60" width="62" height="40" fill="rgb(176,95,176)" stroke="black"/>
<text x="356" y="84" font-size="10">0.597</text>
<rect x="420" y="60" width="62" height="40" fill="rgb(172,98,172)" stroke="black"/>
<text x="426" y="84" font-size="10">0.598</text>
<rect x="490" y="60" width="62" height="40" fill="rgb(175,95,175)" stroke="black"/>
<text x="496" y="84" font-size="10">0.597</text>
<rect x="560" y="60" width="62" height="40" fill="rgb(150,113,150)" stroke="black"/>
<text x="566" y="84" font-size="10">0.606</text>
<rect x="630" y="60" width="62" height="40" fill="rgb(208,73,208)" stroke="black"/>
<text x="636" y="84" font-size="10">0.585</text>
<text x="5" y="138" font-size="11">l=0.05</text>
<rect x="70" y="110" width="62" height="40" fill="rgb(133,125,133)" stroke="black"/>
<text x="76" y="134" font-size="10">0.613</text>
<rect x="140" y="110" width="62" height="40" fill="rgb(104,145,104)" stroke="black"/>
<text x="146" y="134" font-size="10">0.623</text>
<rect x="210" y="110" width="62" height="40" fill="rgb(174,96,174)" stroke="black"/>
<text x="216" y="134" font-size="10">0.597</text>
<rect x="280" y="110" width="62" height="40" fill="rgb(53,181,53)" stroke="black"/>
<text x="286" y="134" font-size="10">0.641</text>
<rect x="350" y="110" width="62" height="40" fill="rgb(82,162,82)" stroke="black"/>
<text x="356" y="134" font-size="10">0.631</text>
<rect x="420" y="110" width="62" height="40" fill="rgb(95,152,95)" stroke="black"/>
<text x="426" y="134" font-size="10">0.626</text>
<rect x="490" y="110" width="62" height="40" fill="rgb(105,145,105)" stroke="black"/>
<text x="496" y="134" font-size="10">0.623</text>
<rect x="560" y="110" width="62" height="40" fill="rgb(67,172,67)" stroke="black"/>
<text x="566" y="134" font-size="10">0.636</text>
<rect x="630" y="110" width="62" height="40" fill="rgb(154,110,154)" stroke="black"/>
<text x="636" y="134" font-size="10">0.605</text>
<text x="5" y="188" font-size="11">l=0.10</text>
<rect x="70" y="160" width="62" height="40" fill="rgb(36,194,36)" stroke="black"/>
<text x="76" y="184" font-size="10">0.648</text>
<rect x="140" y="160" width="62" height="40" fill="rgb(0,220,0)" stroke="black"/>
<text x="146" y="184" font-size="10">0.661</text>
<rect x="210" y="160" width="62" height="40" fill="rgb(146,116,146)" stroke="black"/>
<text x="216" y="184" font-size="10">0.608</text>
<rect x="280" y="160" width="62" height="40" fill="rgb(134,124,134)" stroke="black"/>
<text x="286" y="184" font-size="10">0.612</text>
<rect x="350" y="160" width="62" height="40" fill="rgb(89,156,89)" stroke="black"/>
<text x="356" y="184" font-size="10">0.628</text>
<rect x="420" y="160" width="62" height="40" fill="rgb(101,148,101)" stroke="black"/>
<text x="426" y="184" font-size="10">0.624</text>
<rect x="490" y="160" width="62" height="40" fill="rgb(96,152,96)" stroke="black"/>
<text x="496" y="184" font-size="10">0.626</text>
<rect x="560" y="160" width="62" height="40" fill="rgb(157,108,157)" stroke="black"/>
<text x="566" y="184" font-size="10">0.604</text>
<rect x="630" y="160" width="62" height="40" fill="rgb(80,163,80)" stroke="black"/>
<text x="636" y="184" font-size="10">0.632</text>
<text x="5" y="238" font-size="11">l=0.15</text>
<rect x="70" y="210" width="62" height="40" fill="rgb(255,40,255)" stroke="black"/>
<text x="76" y="234" font-size="10">0.568</text>
<rect x="140" y="210" width="62" height="40" fill="rgb(121,133,121)" stroke="black"/>
<text x="146" y="234" font-size="10">0.617</text>
<rect x="210" y="210" width="62" height="40" fill="rgb(170,99,170)" stroke="black"/>
<text x="216" y="234" font-size="10">0.599</text>
<rect x="280" y="210" width="62" height="40" fill="rgb(177,94,177)" stroke="black"/>
<text x="286" y="234" font-size="10">0.597</text>
<rect x="350" y="210" width="62" height="40" fill="rgb(137,122,137)" stroke="black"/>
<text x="356" y="234" font-size="10">0.611</text>
<rect x="420" y="210" width="62" height="40" fill="rgb(179,93,179)" stroke="black"/>
<text x="426" y="234" font-size="10">0.596</text>
<rect x="490" y="210" width="62" height="40" fill="rgb(165,102,165)" stroke="black"/>
<text x="496" y="234" font-size="10">0.601</text>
<rect x="560" y="210" width="62" height="40" fill="rgb(180,92,180)" stroke="black"/>
<text x="566" y="234" font-size="10">0.595</text>
<rect x="630" y="210" width="62" height="40" fill="rgb(121,134,121)" stroke="black"/>
<text x="636" y="234" font-size="10">0.617</text>
<text x="5" y="288" font-size="11">l=0.20</text>
<rect x="70" y="260" width="62" height="40" fill="rgb(108,143,108)" stroke="black"/>
<text x="76" y="284" font-size="10">0.622</text>
<rect x="140" y="260" width="62" height="40" fill="rgb(179,93,179)" stroke="black"/>
<text x="146" y="284" font-size="10">0.596</text>
<rect x="210" y="260" width="62" height="40" fill="rgb(24,203,24)" stroke="black"/>
<text x="216" y="284" font-size="10">0.652</text>
<rect x="280" y="260" width="62" height="40" fill="rgb(185,89,185)" stroke="black"/>
<text x="286" y="284" font-size="10">0.594</text>
<rect x="350" y="260" width="62" height="40" fill="rgb(72,169,72)" stroke="black"/>
<text x="356" y="284" font-size="10">0.635</text>
<rect x="420" y="260" width="62" height="40" fill="rgb(89,156,89)" stroke="black"/>
<text x="426" y="284" font-size="10">0.628</text>
<rect x="490" y="260" width="62" height="40" fill="rgb(75,166,75)" stroke="black"/>
<text x="496" y="284" font-size="10">0.634</text>
<rect x="560" y="260" width="62" height="40" fill="rgb(63,175,63)" stroke="black"/>
<text x="566" y="284" font-size="10">0.638</text>
<rect x="630" y="260" width="62" height="40" fill="rgb(97,151,97)" stroke="black"/>
<text x="636" y="284" font-size="10">0.626</text>
<text x="5" y="338" font-size="11">l=0.25</text>
<rect x="70" y="310" width="62" height="40" fill="rgb(65,173,65)" stroke="black"/>
<text x="76" y="334" font-size="10">0.637</text>
<rect x="140" y="310" width="62" height="40" fill="rgb(99,149,99)" stroke="black"/>
<text x="146" y="334" font-size="10">0.625</text>
<rect x="210" y="310" width="62" height="40" fill="rgb(130,127,130)" stroke="black"/>
<text x="216" y="334" font-size="10">0.613</text>
<rect x="280" y="310" width="62" height="40" fill="rgb(128,129,128)" stroke="black"/>
<text x="286" y="334" font-size="10">0.614</text>
<rect x="350" y="310" width="62" height="40" fill="rgb(157,108,157)" stroke="black"/>
<text x="356" y="334" font-size="10">0.604</text>
<rect x="420" y="310" width="62" height="40" fill="rgb(144,118,144)" stroke="black"/>
<text x="426" y="334" font-size="10">0.609</text>
<rect x="490" y="310" width="62" height="40" fill="rgb(122,133,122)" stroke="black"/>
<text x="496" y="334" font-size="10">0.617</text>
<rect x="560" y="310" width="62" height="40" fill="rgb(119,135,119)" stroke="black"/>
<text x="566" y="334" font-size="10">0.618</text>
<rect x="630" y="310" width="62" height="40" fill="rgb(122,133,122)" stroke="black"/>
<text x="636" y="334" font-size="10">0.616</text>
<text x="5" y="388" font-size="11">l=0.30</text>
<rect x="70" y="360" width="62" height="40" fill="rgb(112,140,112)" stroke="black"/>
<text x="76" y="384" font-size="10">0.620</text>
<rect x="140" y="360" width="62" height="40" fill="rgb(48,185,48)" stroke="black"/>
<text x="146" y="384" font-size="10">0.643</text>
<rect x="210" y="360" width="62" height="40" fill="rgb(38,193,38)" stroke="black"/>
<text x="216" y="384" font-size="10">0.647</text>
<rect x="280" y="360" width="62" height="40" fill="rgb(151,113,151)" stroke="black"/>
<text x="286" y="384" font-size="10">0.606</text>
<rect x="350" y="360" width="62" height="40" fill="rgb(108,143,108)" stroke="black"/>
<text x="356" y="384" font-size="10">0.621</text>
<rect x="420" y="360" width="62" height="40" fill="rgb(81,162,81)" stroke="black"/>
<text x="426" y="384" font-size="10">0.631</text>
<rect x="490" y="360" width="62" height="40" fill="rgb(118,136,118)" stroke="black"/>
<text x="496" y="384" font-size="10">0.618</text>
<rect x="560" y="360" width="62" height="40" fill="rgb(123,132,123)" stroke="black"/>
<text x="566" y="384" font-size="10">0.616</text>
<rect x="630" y="360" width="62" height="40" fill="rgb(121,134,121)" stroke="black"/>
<text x="636" y="384" font-size="10">0.617</text>
</svg>