<svg xmlns="http://www.w3.org/2000/svg" width="580" height="420">
<text x="20" y="24" font-size="18">Link Prediction AUC</text>
<line x1="70" y1="50" x2="70" y2="330" stroke="black"/>
<line x1="70" y1="330" x2="560" y2="330" stroke="black"/>
<line x1="70" y1="330.0" x2="560" y2="330.0" stroke="#ddd"/>
<text x="8" y="334.0" font-size="10">0.00</text>
<line x1="70" y1="274.0" x2="560" y2="274.0" stroke="#ddd"/>
<text x="8" y="278.0" font-size="10">0.17</text>
<line x1="70" y1="218.0" x2="560" y2="218.0" stroke="#ddd"/>
<text x="8" y="222.0" font-size="10">0.34</text>
<line x1="70" y1="162.0" x2="560" y2="162.0" stroke="#ddd"/>
<text x="8" y="166.0" font-size="10">0.51</text>
<line x1="70" y1="106.0" x2="560" y2="106.0" stroke="#ddd"/>
<text x="8" y="110.0" font-size="10">0.69</text>
<line x1="70" y1="50.0" x2="560" y2="50.0" stroke="#ddd"/>
<text x="8" y="54.0" font-size="10">0.86</text>
<text x="181.06666666666666" y="348" font-size="12">blogcatalog_tuned</text>
<rect x="99.4" y="126.89620700342317" width="40.833333333333336" height="203.10379299657683" fill="#1f77b4"/>
<text x="99.4" y="122.89620700342317" font-size="9">0.623</text>
<rect x="146.23333333333335" y="128.91628003439496" width="40.833333333333336" height="201.08371996560504" fill="#d62728"/>
<text x="146.23333333333335" y="124.91628003439496" font-size="9">0.616</text>
<rect x="193.06666666666666" y="166.90454940542907" width="40.833333333333336" height="163.09545059457093" fill="#2ca02c"/>
<text x="193.06666666666666" y="162.90454940542907" font-size="9">0.500</text>
<rect x="239.9" y="166.83212430645045" width="40.833333333333336" height="163.16787569354955" fill="#ff7f0e"/>
<text x="239.9" y="162.83212430645045" font-size="9">0.500</text>
<text x="426.06666666666666" y="348" font-size="12">cora_tuned</text>
<rect x="344.4" y="50.0" width="40.833333333333336" height="280.0" fill="#1f77b4"/>
<text x="344.4" y="46.0" font-size="9">0.858</text>
<rect x="391.2333333333333" y="92.38988844950168" width="40.833333333333336" height="237.61011155049832" fill="#d62728"/>
<text x="391.2333333333333" y="88.38988844950168" font-size="9">0.728</text>
<rect x="438.06666666666666" y="158.75346337848637" width="40.833333333333336" height="171.24653662151363" fill="#2ca02c"/>
<text x="438.06666666666666" y="154.75346337848637" font-size="9">0.525</text>
<rect x="484.9" y="158.46996152707902" width="40.833333333333336" height="171.53003847292098" fill="#ff7f0e"/>
<text x="484.9" y="154.46996152707902" font-size="9">0.526</text>
<rect x="70" y="380" width="14" height="14" fill="#1f77b4"/>
<text x="90" y="392" font-size="12">louvainNE</text>
<rect x="210" y="380" width="14" height="14" fill="#d62728"/>
<text x="230" y="392" font-size="12">attr-louvainNE</text>
<rect x="350" y="380" width="14" height="14" fill="#2ca02c"/>
<text x="370" y="392" font-size="12">deepwalk</text>
<rect x="490" y="380" width="14" height="14" fill="#ff7f0e"/>
<text x="510" y="392" font-size="12">node2vec</text>
</svg>