<svg xmlns="http://www.w3.org/2000/svg" width="580" height="420">
<text x="20" y="24" font-size="18">Node Classification Accuracy</text>
<line x1="70" y1="50" x2="70" y2="330" stroke="black"/>
<line x1="70" y1="330" x2="560" y2="330" stroke="black"/>
<line x1="70" y1="330.0" x2="560" y2="330.0" stroke="#ddd"/>
<text x="8" y="334.0" font-size="10">0.00</text>
<line x1="70" y1="274.0" x2="560" y2="274.0" stroke="#ddd"/>
<text x="8" y="278.0" font-size="10">0.05</text>
<line x1="70" y1="218.0" x2="560" y2="218.0" stroke="#ddd"/>
<text x="8" y="222.0" font-size="10">0.10</text>
<line x1="70" y1="162.0" x2="560" y2="162.0" stroke="#ddd"/>
<text x="8" y="166.0" font-size="10">0.15</text>
<line x1="70" y1="106.0" x2="560" y2="106.0" stroke="#ddd"/>
<text x="8" y="110.0" font-size="10">0.20</text>
<line x1="70" y1="50.0" x2="560" y2="50.0" stroke="#ddd"/>
<text x="8" y="54.0" font-size="10">0.25</text>
<text x="181.06666666666666" y="348" font-size="12">blogcatalog_tuned</text>
<rect x="99.4" y="137.0738908265066" width="40.833333333333336" height="192.9261091734934" fill="#1f77b4"/>
<text x="99.4" y="133.0738908265066" font-size="9">0.170</text>
<rect x="146.23333333333335" y="112.62811258009569" width="40.833333333333336" height="217.3718874199043" fill="#d62728"/>
<text x="146.23333333333335" y="108.62811258009569" font-size="9">0.191</text>
<rect x="193.06666666666666" y="173.41211777110877" width="40.833333333333336" height="156.58788222889123" fill="#2ca02c"/>
<text x="193.06666666666666" y="169.41211777110877" font-size="9">0.138</text>
<rect x="239.9" y="173.41211777110877" width="40.833333333333336" height="156.58788222889123" fill="#ff7f0e"/>
<text x="239.9" y="169.41211777110877" font-size="9">0.138</text>
<text x="426.06666666666666" y="348" font-size="12">cora_tuned</text>
<rect x="344.4" y="50.0" width="40.833333333333336" height="280.0" fill="#1f77b4"/>
<text x="344.4" y="46.0" font-size="9">0.247</text>
<rect x="391.2333333333333" y="205.53297104388028" width="40.833333333333336" height="124.46702895611972" fill="#d62728"/>
<text x="391.2333333333333" y="201.53297104388028" font-size="9">0.110</text>
<rect x="438.06666666666666" y="277.95392975910454" width="40.833333333333336" height="52.04607024089545" fill="#2ca02c"/>
<text x="438.06666666666666" y="273.95392975910454" font-size="9">0.046</text>
<rect x="484.9" y="277.95392975910454" width="40.833333333333336" height="52.04607024089545" fill="#ff7f0e"/>
<text x="484.9" y="273.95392975910454" font-size="9">0.046</text>
<rect x="70" y="380" width="14" height="14" fill="#1f77b4"/>
<text x="90" y="392" font-size="12">louvainNE</text>
<rect x="210" y="380" width="14" height="14" fill="#d62728"/>
<text x="230" y="392" font-size="12">attr-louvainNE</text>
<rect x="350" y="380" width="14" height="14" fill="#2ca02c"/>
<text x="370" y="392" font-size="12">deepwalk</text>
<rect x="490" y="380" width="14" height="14" fill="#ff7f0e"/>
<text x="510" y="392" font-size="12">node2vec</text>
</svg>