<svg xmlns="http://www.w3.org/2000/svg" width="580" height="420">
<text x="20" y="24" font-size="18">Node Classification Accuracy</text>
<line x1="70" y1="50" x2="70" y2="330" stroke="black"/>
<line x1="70" y1="330" x2="560" y2="330" stroke="black"/>
<line x1="70" y1="330.0" x2="560" y2="330.0" stroke="#ddd"/>
<text x="8" y="334.0" font-size="10">0.00</text>
<line x1="70" y1="274.0" x2="560" y2="274.0" stroke="#ddd"/>
<text x="8" y="278.0" font-size="10">0.06</text>
<line x1="70" y1="218.0" x2="560" y2="218.0" stroke="#ddd"/>
<text x="8" y="222.0" font-size="10">0.11</text>
<line x1="70" y1="162.0" x2="560" y2="162.0" stroke="#ddd"/>
<text x="8" y="166.0" font-size="10">0.17</text>
<line x1="70" y1="106.0" x2="560" y2="106.0" stroke="#ddd"/>
<text x="8" y="110.0" font-size="10">0.23</text>
<line x1="70" y1="50.0" x2="560" y2="50.0" stroke="#ddd"/>
<text x="8" y="54.0" font-size="10">0.29</text>
<text x="153.84444444444443" y="348" font-size="12">blogcatalog</text>
<rect x="99.4" y="168.87167652763117" width="27.22222222222222" height="161.12832347236883" fill="#1f77b4"/>
<text x="99.4" y="164.87167652763117" font-size="9">0.164</text>
<rect x="132.62222222222223" y="147.92158691969658" width="27.22222222222222" height="182.07841308030342" fill="#d62728"/>
<text x="132.62222222222223" y="143.92158691969658" font-size="9">0.185</text>
<rect x="165.84444444444443" y="147.92158691969658" width="27.22222222222222" height="182.07841308030342" fill="#9467bd"/>
<text x="165.84444444444443" y="143.92158691969658" font-size="9">0.185</text>
<rect x="199.06666666666666" y="104.68784523604941" width="27.22222222222222" height="225.3121547639506" fill="#8c564b"/>
<text x="199.06666666666666" y="100.68784523604941" font-size="9">0.229</text>
<rect x="232.2888888888889" y="194.5835072300101" width="27.22222222222222" height="135.4164927699899" fill="#2ca02c"/>
<text x="232.2888888888889" y="190.5835072300101" font-size="9">0.138</text>
<rect x="265.5111111111111" y="194.5835072300101" width="27.22222222222222" height="135.4164927699899" fill="#ff7f0e"/>
<text x="265.5111111111111" y="190.5835072300101" font-size="9">0.138</text>
<text x="398.84444444444443" y="348" font-size="12">cora</text>
<rect x="344.4" y="71.6325829180272" width="27.22222222222222" height="258.3674170819728" fill="#1f77b4"/>
<text x="344.4" y="67.6325829180272" font-size="9">0.263</text>
<rect x="377.6222222222222" y="204.21795595708642" width="27.22222222222222" height="125.7820440429136" fill="#d62728"/>
<text x="377.6222222222222" y="200.21795595708642" font-size="9">0.128</text>
<rect x="410.84444444444443" y="50.0" width="27.22222222222222" height="280.0" fill="#9467bd"/>
<text x="410.84444444444443" y="46.0" font-size="9">0.285</text>
<rect x="444.0666666666666" y="54.53587999901805" width="27.22222222222222" height="275.46412000098195" fill="#8c564b"/>
<text x="444.0666666666666" y="50.53587999901805" font-size="9">0.281</text>
<rect x="477.2888888888889" y="284.99079370534946" width="27.22222222222222" height="45.009206294650525" fill="#2ca02c"/>
<text x="477.2888888888889" y="280.99079370534946" font-size="9">0.046</text>
<rect x="510.51111111111106" y="284.99079370534946" width="27.22222222222222" height="45.009206294650525" fill="#ff7f0e"/>
<text x="510.51111111111106" y="280.99079370534946" font-size="9">0.046</text>
<rect x="70" y="380" width="14" height="14" fill="#1f77b4"/>
<text x="90" y="392" font-size="12">louvainNE</text>
<rect x="210" y="380" width="14" height="14" fill="#d62728"/>
<text x="230" y="392" font-size="12">attr-louvainNE</text>
<rect x="350" y="380" width="14" height="14" fill="#9467bd"/>
<text x="370" y="392" font-size="12">method1-preserve</text>
<rect x="490" y="380" width="14" height="14" fill="#8c564b"/>
<text x="510" y="392" font-size="12">method1-augment</text>
<rect x="630" y="380" width="14" height="14" fill="#2ca02c"/>
<text x="650" y="392" font-size="12">deepwalk</text>
<rect x="770" y="380" width="14" height="14" fill="#ff7f0e"/>
<text x="790" y="392" font-size="12">node2vec</text>
</svg>