<svg xmlns="http://www.w3.org/2000/svg" width="280" height="270">
<text x="10" y="20" font-size="14">node_accuracy_mean heatmap</text>
<text x="80" y="45" font-size="11">b=0.00</text>
<text x="150" y="45" font-size="11">b=0.20</text>
<text x="220" y="45" font-size="11">b=0.30</text>
<text x="5" y="88" font-size="11">l=0.00</text>
<rect x="70" y="60" width="62" height="40" fill="rgb(157,108,157)" stroke="black"/>
<text x="76" y="84" font-size="10">0.112</text>
<rect x="140" y="60" width="62" height="40" fill="rgb(255,40,255)" stroke="black"/>
<text x="146" y="84" font-size="10">0.102</text>
<rect x="210" y="60" width="62" height="40" fill="rgb(201,77,201)" stroke="black"/>
<text x="216" y="84" font-size="10">0.107</text>
<text x="5" y="138" font-size="11">l=0.10</text>
<rect x="70" y="110" width="62" height="40" fill="rgb(169,100,169)" stroke="black"/>
<text x="76" y="134" font-size="10">0.110</text>
<rect x="140" y="110" width="62" height="40" fill="rgb(86,158,86)" stroke="black"/>
<text x="146" y="134" font-size="10">0.119</text>
<rect x="210" y="110" width="62" height="40" fill="rgb(52,183,52)" stroke="black"/>
<text x="216" y="134" font-size="10">0.123</text>
<text x="5" y="188" font-size="11">l=0.20</text>
<rect x="70" y="160" width="62" height="40" fill="rgb(62,175,62)" stroke="black"/>
<text x="76" y="184" font-size="10">0.122</text>
<rect x="140" y="160" width="62" height="40" fill="rgb(147,115,147)" stroke="black"/>
<text x="146" y="184" font-size="10">0.113</text>
<rect x="210" y="160" width="62" height="40" fill="rgb(43,189,43)" stroke="black"/>
<text x="216" y="184" font-size="10">0.123</text>
<text x="5" y="238" font-size="11">l=0.40</text>
<rect x="70" y="210" width="62" height="40" fill="rgb(0,220,0)" stroke="black"/>
<text x="76" y="234" font-size="10">0.128</text>
<rect x="140" y="210" width="62" height="40" fill="rgb(24,202,24)" stroke="black"/>
<text x="146" y="234" font-size="10">0.125</text>
<rect x="210" y="210" width="62" height="40" fill="rgb(38,193,38)" stroke="black"/>
<text x="216" y="234" font-size="10">0.124</text>
</svg>