<svg xmlns="http://www.w3.org/2000/svg" width="700" height="520">
<text x="10" y="20" font-size="14">node_accuracy_mean heatmap</text>
<text x="80" y="45" font-size="11">b=0.00</text>
<text x="150" y="45" font-size="11">b=0.05</text>
<text x="220" y="45" font-size="11">b=0.10</text>
<text x="290" y="45" font-size="11">b=0.15</text>
<text x="360" y="45" font-size="11">b=0.20</text>
<text x="430" y="45" font-size="11">b=0.25</text>
<text x="500" y="45" font-size="11">b=0.30</text>
<text x="570" y="45" font-size="11">b=0.35</text>
<text x="640" y="45" font-size="11">b=0.40</text>
<text x="5" y="88" font-size="11">l=0.00</text>
<rect x="70" y="60" width="62" height="40" fill="rgb(211,70,211)" stroke="black"/>
<text x="76" y="84" font-size="10">0.101</text>
<rect x="140" y="60" width="62" height="40" fill="rgb(152,112,152)" stroke="black"/>
<text x="146" y="84" font-size="10">0.114</text>
<rect x="210" y="60" width="62" height="40" fill="rgb(156,109,156)" stroke="black"/>
<text x="216" y="84" font-size="10">0.114</text>
<rect x="280" y="60" width="62" height="40" fill="rgb(182,91,182)" stroke="black"/>
<text x="286" y="84" font-size="10">0.107</text>
<rect x="350" y="60" width="62" height="40" fill="rgb(206,74,206)" stroke="black"/>
<text x="356" y="84" font-size="10">0.102</text>
<rect x="420" y="60" width="62" height="40" fill="rgb(203,76,203)" stroke="black"/>
<text x="426" y="84" font-size="10">0.103</text>
<rect x="490" y="60" width="62" height="40" fill="rgb(178,94,178)" stroke="black"/>
<text x="496" y="84" font-size="10">0.109</text>
<rect x="560" y="60" width="62" height="40" fill="rgb(189,86,189)" stroke="black"/>
<text x="566" y="84" font-size="10">0.106</text>
<rect x="630" y="60" width="62" height="40" fill="rgb(255,40,255)" stroke="black"/>
<text x="636" y="84" font-size="10">0.091</text>
<text x="5" y="138" font-size="11">l=0.05</text>
<rect x="70" y="110" width="62" height="40" fill="rgb(153,111,153)" stroke="black"/>
<text x="76" y="134" font-size="10">0.114</text>
<rect x="140" y="110" width="62" height="40" fill="rgb(86,159,86)" stroke="black"/>
<text x="146" y="134" font-size="10">0.130</text>
<rect x="210" y="110" width="62" height="40" fill="rgb(190,85,190)" stroke="black"/>
<text x="216" y="134" font-size="10">0.106</text>
<rect x="280" y="110" width="62" height="40" fill="rgb(176,95,176)" stroke="black"/>
<text x="286" y="134" font-size="10">0.109</text>
<rect x="350" y="110" width="62" height="40" fill="rgb(136,123,136)" stroke="black"/>
<text x="356" y="134" font-size="10">0.118</text>
<rect x="420" y="110" width="62" height="40" fill="rgb(201,77,201)" stroke="black"/>
<text x="426" y="134" font-size="10">0.103</text>
<rect x="490" y="110" width="62" height="40" fill="rgb(173,97,173)" stroke="black"/>
<text x="496" y="134" font-size="10">0.110</text>
<rect x="560" y="110" width="62" height="40" fill="rgb(173,97,173)" stroke="black"/>
<text x="566" y="134" font-size="10">0.110</text>
<rect x="630" y="110" width="62" height="40" fill="rgb(144,117,144)" stroke="black"/>
<text x="636" y="134" font-size="10">0.116</text>
<text x="5" y="188" font-size="11">l=0.10</text>
<rect x="70" y="160" width="62" height="40" fill="rgb(115,138,115)" stroke="black"/>
<text x="76" y="184" font-size="10">0.123</text>
<rect x="140" y="160" width="62" height="40" fill="rgb(50,184,50)" stroke="black"/>
<text x="146" y="184" font-size="10">0.138</text>
<rect x="210" y="160" width="62" height="40" fill="rgb(206,74,206)" stroke="black"/>
<text x="216" y="184" font-size="10">0.102</text>
<rect x="280" y="160" width="62" height="40" fill="rgb(95,152,95)" stroke="black"/>
<text x="286" y="184" font-size="10">0.127</text>
<rect x="350" y="160" width="62" height="40" fill="rgb(100,149,100)" stroke="black"/>
<text x="356" y="184" font-size="10">0.126</text>
<rect x="420" y="160" width="62" height="40" fill="rgb(112,140,112)" stroke="black"/>
<text x="426" y="184" font-size="10">0.123</text>
<rect x="490" y="160" width="62" height="40" fill="rgb(158,108,158)" stroke="black"/>
<text x="496" y="184" font-size="10">0.113</text>
<rect x="560" y="160" width="62" height="40" fill="rgb(79,164,79)" stroke="black"/>
<text x="566" y="184" font-size="10">0.131</text>
<rect x="630" y="160" width="62" height="40" fill="rgb(189,86,189)" stroke="black"/>
<text x="636" y="184" font-size="10">0.106</text>
<text x="5" y="238" font-size="11">l=0.15</text>
<rect x="70" y="210" width="62" height="40" fill="rgb(162,105,162)" stroke="black"/>
<text x="76" y="234" font-size="10">0.112</text>
<rect x="140" y="210" width="62" height="40" fill="rgb(80,163,80)" stroke="black"/>
<text x="146" y="234" font-size="10">0.131</text>
<rect x="210" y="210" width="62" height="40" fill="rgb(76,166,76)" stroke="black"/>
<text x="216" y="234" font-size="10">0.132</text>
<rect x="280" y="210" width="62" height="40" fill="rgb(0,220,0)" stroke="black"/>
<text x="286" y="234" font-size="10">0.149</text>
<rect x="350" y="210" width="62" height="40" fill="rgb(84,160,84)" stroke="black"/>
<text x="356" y="234" font-size="10">0.130</text>
<rect x="420" y="210" width="62" height="40" fill="rgb(147,115,147)" stroke="black"/>
<text x="426" y="234" font-size="10">0.115</text>
<rect x="490" y="210" width="62" height="40" fill="rgb(146,116,146)" stroke="black"/>
<text x="496" y="234" font-size="10">0.116</text>
<rect x="560" y="210" width="62" height="40" fill="rgb(118,136,118)" stroke="black"/>
<text x="566" y="234" font-size="10">0.122</text>
<rect x="630" y="210" width="62" height="40" fill="rgb(119,135,119)" stroke="black"/>
<text x="636" y="234" font-size="10">0.122</text>
<text x="5" y="288" font-size="11">l=0.20</text>
<rect x="70" y="260" width="62" height="40" fill="rgb(112,140,112)" stroke="black"/>
<text x="76" y="284" font-size="10">0.123</text>
<rect x="140" y="260" width="62" height="40" fill="rgb(70,170,70)" stroke="black"/>
<text x="146" y="284" font-size="10">0.133</text>
<rect x="210" y="260" width="62" height="40" fill="rgb(76,165,76)" stroke="black"/>
<text x="216" y="284" font-size="10">0.132</text>
<rect x="280" y="260" width="62" height="40" fill="rgb(120,134,120)" stroke="black"/>
<text x="286" y="284" font-size="10">0.122</text>
<rect x="350" y="260" width="62" height="40" fill="rgb(71,169,71)" stroke="black"/>
<text x="356" y="284" font-size="10">0.133</text>
<rect x="420" y="260" width="62" height="40" fill="rgb(167,102,167)" stroke="black"/>
<text x="426" y="284" font-size="10">0.111</text>
<rect x="490" y="260" width="62" height="40" fill="rgb(2,218,2)" stroke="black"/>
<text x="496" y="284" font-size="10">0.149</text>
<rect x="560" y="260" width="62" height="40" fill="rgb(177,94,177)" stroke="black"/>
<text x="566" y="284" font-size="10">0.109</text>
<rect x="630" y="260" width="62" height="40" fill="rgb(9,213,9)" stroke="black"/>
<text x="636" y="284" font-size="10">0.147</text>
<text x="5" y="338" font-size="11">l=0.25</text>
<rect x="70" y="310" width="62" height="40" fill="rgb(71,169,71)" stroke="black"/>
<text x="76" y="334" font-size="10">0.133</text>
<rect x="140" y="310" width="62" height="40" fill="rgb(129,128,129)" stroke="black"/>
<text x="146" y="334" font-size="10">0.120</text>
<rect x="210" y="310" width="62" height="40" fill="rgb(34,195,34)" stroke="black"/>
<text x="216" y="334" font-size="10">0.141</text>
<rect x="280" y="310" width="62" height="40" fill="rgb(94,153,94)" stroke="black"/>
<text x="286" y="334" font-size="10">0.128</text>
<rect x="350" y="310" width="62" height="40" fill="rgb(73,167,73)" stroke="black"/>
<text x="356" y="334" font-size="10">0.132</text>
<rect x="420" y="310" width="62" height="40" fill="rgb(59,178,59)" stroke="black"/>
<text x="426" y="334" font-size="10">0.136</text>
<rect x="490" y="310" width="62" height="40" fill="rgb(67,172,67)" stroke="black"/>
<text x="496" y="334" font-size="10">0.134</text>
<rect x="560" y="310" width="62" height="40" fill="rgb(104,145,104)" stroke="black"/>
<text x="566" y="334" font-size="10">0.125</text>
<rect x="630" y="310" width="62" height="40" fill="rgb(107,144,107)" stroke="black"/>
<text x="636" y="334" font-size="10">0.125</text>
<text x="5" y="388" font-size="11">l=0.30</text>
<rect x="70" y="360" width="62" height="40" fill="rgb(90,155,90)" stroke="black"/>
<text x="76" y="384" font-size="10">0.128</text>
<rect x="140" y="360" width="62" height="40" fill="rgb(113,139,113)" stroke="black"/>
<text x="146" y="384" font-size="10">0.123</text>
<rect x="210" y="360" width="62" height="40" fill="rgb(135,124,135)" stroke="black"/>
<text x="216" y="384" font-size="10">0.118</text>
<rect x="280" y="360" width="62" height="40" fill="rgb(97,151,97)" stroke="black"/>
<text x="286" y="384" font-size="10">0.127</text>
<rect x="350" y="360" width="62" height="40" fill="rgb(20,205,20)" stroke="black"/>
<text x="356" y="384" font-size="10">0.145</text>
<rect x="420" y="360" width="62" height="40" fill="rgb(35,194,35)" stroke="black"/>
<text x="426" y="384" font-size="10">0.141</text>
<rect x="490" y="360" width="62" height="40" fill="rgb(148,115,148)" stroke="black"/>
<text x="496" y="384" font-size="10">0.115</text>
<rect x="560" y="360" width="62" height="40" fill="rgb(44,188,44)" stroke="black"/>
<text x="566" y="384" font-size="10">0.139</text>
<rect x="630" y="360" width="62" height="40" fill="rgb(92,154,92)" stroke="black"/>
<text x="636" y="384" font-size="10">0.128</text>
<text x="5" y="438" font-size="11">l=0.35</text>
<rect x="70" y="410" width="62" height="40" fill="rgb(154,110,154)" stroke="black"/>
<text x="76" y="434" font-size="10">0.114</text>
<rect x="140" y="410" width="62" height="40" fill="rgb(33,196,33)" stroke="black"/>
<text x="146" y="434" font-size="10">0.142</text>
<rect x="210" y="410" width="62" height="40" fill="rgb(68,171,68)" stroke="black"/>
<text x="216" y="434" font-size="10">0.134</text>
<rect x="280" y="410" width="62" height="40" fill="rgb(164,103,164)" stroke="black"/>
<text x="286" y="434" font-size="10">0.112</text>
<rect x="350" y="410" width="62" height="40" fill="rgb(85,159,85)" stroke="black"/>
<text x="356" y="434" font-size="10">0.130</text>
<rect x="420" y="410" width="62" height="40" fill="rgb(164,104,164)" stroke="black"/>
<text x="426" y="434" font-size="10">0.112</text>
<rect x="490" y="410" width="62" height="40" fill="rgb(114,139,114)" stroke="black"/>
<text x="496" y="434" font-size="10">0.123</text>
<rect x="560" y="410" width="62" height="40" fill="rgb(124,132,124)" stroke="black"/>
<text x="566" y="434" font-size="10">0.121</text>
<rect x="630" y="410" width="62" height="40" fill="rgb(76,165,76)" stroke="black"/>
<text x="636" y="434" font-size="10">0.132</text>
<text x="5" y="488" font-size="11">l=0.40</text>
<rect x="70" y="460" width="62" height="40" fill="rgb(43,189,43)" stroke="black"/>
<text x="76" y="484" font-size="10">0.139</text>
<rect x="140" y="460" width="62" height="40" fill="rgb(80,162,80)" stroke="black"/>
<text x="146" y="484" font-size="10">0.131</text>
<rect x="210" y="460" width="62" height="40" fill="rgb(102,147,102)" stroke="black"/>
<text x="216" y="484" font-size="10">0.126</text>
<rect x="280" y="460" width="62" height="40" fill="rgb(111,141,111)" stroke="black"/>
<text x="286" y="484" font-size="10">0.124</text>
<rect x="350" y="460" width="62" height="40" fill="rgb(63,175,63)" stroke="black"/>
<text x="356" y="484" font-size="10">0.135</text>
<rect x="420" y="460" width="62" height="40" fill="rgb(57,179,57)" stroke="black"/>
<text x="426" y="484" font-size="10">0.136</text>
<rect x="490" y="460" width="62" height="40" fill="rgb(98,150,98)" stroke="black"/>
<text x="496" y="484" font-size="10">0.127</text>
<rect x="560" y="460" width="62" height="40" fill="rgb(53,182,53)" stroke="black"/>
<text x="566" y="484" font-size="10">0.137</text>
<rect x="630" y="460" width="62" height="40" fill="rgb(40,191,40)" stroke="black"/>
<text x="636" y="484" font-size="10">0.140</text>
</svg>