<svg xmlns="http://www.w3.org/2000/svg" width="580" height="420">
<text x="20" y="24" font-size="18">Link Prediction AUC</text>
<line x1="70" y1="50" x2="70" y2="330" stroke="black"/>
<line x1="70" y1="330" x2="560" y2="330" stroke="black"/>
<line x1="70" y1="330.0" x2="560" y2="330.0" stroke="#ddd"/>
<text x="8" y="334.0" font-size="10">0.00</text>
<line x1="70" y1="274.0" x2="560" y2="274.0" stroke="#ddd"/>
<text x="8" y="278.0" font-size="10">0.17</text>
<line x1="70" y1="218.0" x2="560" y2="218.0" stroke="#ddd"/>
<text x="8" y="222.0" font-size="10">0.34</text>
<line x1="70" y1="162.0" x2="560" y2="162.0" stroke="#ddd"/>
<text x="8" y="166.0" font-size="10">0.50</text>
<line x1="70" y1="106.0" x2="560" y2="106.0" stroke="#ddd"/>
<text x="8" y="110.0" font-size="10">0.67</text>
<line x1="70" y1="50.0" x2="560" y2="50.0" stroke="#ddd"/>
<text x="8" y="54.0" font-size="10">0.84</text>
<text x="181.06666666666666" y="348" font-size="12">blogcatalog</text>
<rect x="99.4" y="136.97142259075835" width="40.833333333333336" height="193.02857740924165" fill="#1f77b4"/>
<text x="99.4" y="132.97142259075835" font-size="9">0.580</text>
<rect x="146.23333333333335" y="125.74883088091872" width="40.833333333333336" height="204.25116911908128" fill="#d62728"/>
<text x="146.23333333333335" y="121.74883088091872" font-size="9">0.613</text>
<rect x="193.06666666666666" y="163.51734768150487" width="40.833333333333336" height="166.48265231849513" fill="#2ca02c"/>
<text x="193.06666666666666" y="159.51734768150487" font-size="9">0.500</text>
<rect x="239.9" y="163.44341844234802" width="40.833333333333336" height="166.55658155765198" fill="#ff7f0e"/>
<text x="239.9" y="159.44341844234802" font-size="9">0.500</text>
<text x="426.06666666666666" y="348" font-size="12">cora</text>
<rect x="344.4" y="50.0" width="40.833333333333336" height="280.0" fill="#1f77b4"/>
<text x="344.4" y="46.0" font-size="9">0.841</text>
<rect x="391.2333333333333" y="90.84390654659111" width="40.833333333333336" height="239.1560934534089" fill="#d62728"/>
<text x="391.2333333333333" y="86.84390654659111" font-size="9">0.718</text>
<rect x="438.06666666666666" y="155.19697813045607" width="40.833333333333336" height="174.80302186954393" fill="#2ca02c"/>
<text x="438.06666666666666" y="151.19697813045607" font-size="9">0.525</text>
<rect x="484.9" y="154.90758845105398" width="40.833333333333336" height="175.09241154894602" fill="#ff7f0e"/>
<text x="484.9" y="150.90758845105398" font-size="9">0.526</text>
<rect x="70" y="380" width="14" height="14" fill="#1f77b4"/>
<text x="90" y="392" font-size="12">louvainNE</text>
<rect x="210" y="380" width="14" height="14" fill="#d62728"/>
<text x="230" y="392" font-size="12">attr-louvainNE</text>
<rect x="350" y="380" width="14" height="14" fill="#2ca02c"/>
<text x="370" y="392" font-size="12">deepwalk</text>
<rect x="490" y="380" width="14" height="14" fill="#ff7f0e"/>
<text x="510" y="392" font-size="12">node2vec</text>
</svg>