<svg xmlns="http://www.w3.org/2000/svg" width="280" height="270">
<text x="10" y="20" font-size="14">node_accuracy_mean heatmap</text>
<text x="80" y="45" font-size="11">b=0.00</text>
<text x="150" y="45" font-size="11">b=0.20</text>
<text x="220" y="45" font-size="11">b=0.30</text>
<text x="5" y="88" font-size="11">l=0.00</text>
<rect x="70" y="60" width="62" height="40" fill="rgb(185,89,185)" stroke="black"/>
<text x="76" y="84" font-size="10">0.167</text>
<rect x="140" y="60" width="62" height="40" fill="rgb(203,76,203)" stroke="black"/>
<text x="146" y="84" font-size="10">0.164</text>
<rect x="210" y="60" width="62" height="40" fill="rgb(158,108,158)" stroke="black"/>
<text x="216" y="84" font-size="10">0.172</text>
<text x="5" y="138" font-size="11">l=0.10</text>
<rect x="70" y="110" width="62" height="40" fill="rgb(226,60,226)" stroke="black"/>
<text x="76" y="134" font-size="10">0.160</text>
<rect x="140" y="110" width="62" height="40" fill="rgb(229,57,229)" stroke="black"/>
<text x="146" y="134" font-size="10">0.159</text>
<rect x="210" y="110" width="62" height="40" fill="rgb(255,40,255)" stroke="black"/>
<text x="216" y="134" font-size="10">0.155</text>
<text x="5" y="188" font-size="11">l=0.20</text>
<rect x="70" y="160" width="62" height="40" fill="rgb(46,186,46)" stroke="black"/>
<text x="76" y="184" font-size="10">0.192</text>
<rect x="140" y="160" width="62" height="40" fill="rgb(111,141,111)" stroke="black"/>
<text x="146" y="184" font-size="10">0.180</text>
<rect x="210" y="160" width="62" height="40" fill="rgb(18,206,18)" stroke="black"/>
<text x="216" y="184" font-size="10">0.197</text>
<text x="5" y="238" font-size="11">l=0.40</text>
<rect x="70" y="210" width="62" height="40" fill="rgb(0,220,0)" stroke="black"/>
<text x="76" y="234" font-size="10">0.200</text>
<rect x="140" y="210" width="62" height="40" fill="rgb(43,189,43)" stroke="black"/>
<text x="146" y="234" font-size="10">0.192</text>
<rect x="210" y="210" width="62" height="40" fill="rgb(35,194,35)" stroke="black"/>
<text x="216" y="234" font-size="10">0.194</text>
</svg>