<svg xmlns="http://www.w3.org/2000/svg" width="280" height="270">
<text x="10" y="20" font-size="14">link_auc heatmap</text>
<text x="80" y="45" font-size="11">b=0.00</text>
<text x="150" y="45" font-size="11">b=0.20</text>
<text x="220" y="45" font-size="11">b=0.30</text>
<text x="5" y="88" font-size="11">l=0.00</text>
<rect x="70" y="60" width="62" height="40" fill="rgb(56,179,56)" stroke="black"/>
<text x="76" y="84" font-size="10">0.634</text>
<rect x="140" y="60" width="62" height="40" fill="rgb(0,220,0)" stroke="black"/>
<text x="146" y="84" font-size="10">0.642</text>
<rect x="210" y="60" width="62" height="40" fill="rgb(223,62,223)" stroke="black"/>
<text x="216" y="84" font-size="10">0.610</text>
<text x="5" y="138" font-size="11">l=0.10</text>
<rect x="70" y="110" width="62" height="40" fill="rgb(77,165,77)" stroke="black"/>
<text x="76" y="134" font-size="10">0.631</text>
<rect x="140" y="110" width="62" height="40" fill="rgb(170,99,170)" stroke="black"/>
<text x="146" y="134" font-size="10">0.618</text>
<rect x="210" y="110" width="62" height="40" fill="rgb(97,150,97)" stroke="black"/>
<text x="216" y="134" font-size="10">0.628</text>
<text x="5" y="188" font-size="11">l=0.20</text>
<rect x="70" y="160" width="62" height="40" fill="rgb(169,100,169)" stroke="black"/>
<text x="76" y="184" font-size="10">0.618</text>
<rect x="140" y="160" width="62" height="40" fill="rgb(132,126,132)" stroke="black"/>
<text x="146" y="184" font-size="10">0.623</text>
<rect x="210" y="160" width="62" height="40" fill="rgb(32,197,32)" stroke="black"/>
<text x="216" y="184" font-size="10">0.637</text>
<text x="5" y="238" font-size="11">l=0.40</text>
<rect x="70" y="210" width="62" height="40" fill="rgb(255,40,255)" stroke="black"/>
<text x="76" y="234" font-size="10">0.606</text>
<rect x="140" y="210" width="62" height="40" fill="rgb(18,207,18)" stroke="black"/>
<text x="146" y="234" font-size="10">0.639</text>
<rect x="210" y="210" width="62" height="40" fill="rgb(102,147,102)" stroke="black"/>
<text x="216" y="234" font-size="10">0.627</text>
</svg>